<svg xmlns="http://www.w3.org/2000/svg" viewBox="0 0 599.29 123.28"><defs><style>.cls-1{fill:#5c6a89;}.cls-2{fill:#71ffd7;}.cls-2,.cls-3{fill-rule:evenodd;}.cls-3{fill:#1735de;}</style></defs><g id="Layer_2" data-name="Layer 2"><g id="Layer_1-2" data-name="Layer 1"><path id="Combined-Shape" class="cls-1" d="M238.4,49.81,237,56.28a6.41,6.41,0,0,1-6.47,5.3H186.85a3.28,3.28,0,0,0-3.23,2.69l-.22,1.18h51.79l-3.64,18A11.67,11.67,0,0,1,220.05,93H166.49l1.28-6.4a6.61,6.61,0,0,1,6.46-5.38H218a3.34,3.34,0,0,0,3.23-2.69l.21-1.26H169.69l3.65-17.83a11.67,11.67,0,0,1,11.49-9.59Zm90,0-1.35,6.47a6.36,6.36,0,0,1-6.42,5.3H300.3L294,93H282.72l6.35-31.38H263.33l1.28-6.39A6.55,6.55,0,0,1,271,49.81Zm179.76,0L504,70.16a8.68,8.68,0,0,1-8.65,7.07l-13,.08L500.9,93H484L466.19,77.31h-15.4L447.58,93h-11.3l5.63-27.42,51.79-.09.78-3.87H442.69L444,55.19a6.59,6.59,0,0,1,6.46-5.38Zm39.24,0-3.21,15.64h40.62l2.08-10.26a6.53,6.53,0,0,1,6.46-5.38h5.9l-6.86,33.64A11.57,11.57,0,0,1,580.91,93H527.37l1.29-6.4a6.49,6.49,0,0,1,6.47-5.38H578.9a3.27,3.27,0,0,0,3.23-2.69l.29-1.26H530.58l5.56-27.42Zm-139.18,0c4.72,0,8.55,4.8,7.79,9.6l0,.24-4.84,23.8A11.57,11.57,0,0,1,400.09,93H356.48a8.21,8.21,0,0,1-7.79-9.53l.05-.23,4.76-23.8a11.56,11.56,0,0,1,11.07-9.59h43.69Zm-5.15,11.77h-35.8a3.19,3.19,0,0,0-3.17,2.51l0,.18L361,79.58a1.36,1.36,0,0,0,1.15,1.59h36a3.23,3.23,0,0,0,3.15-2.5l0-.19,3.05-15.23A1.4,1.4,0,0,0,403.11,61.58Z"/><path id="Rectangle" class="cls-2" d="M0,18.05,95.62,74.29a20.31,20.31,0,0,1,10,17.51v13.61h0L10,49.17A20.31,20.31,0,0,1,0,31.66V18.05Z"/><path id="Combined-Shape-2" data-name="Combined-Shape" class="cls-3" d="M68.17,4.15l27.39,16a20.32,20.32,0,0,1,10.08,17.55V52.08L57.94,24.27a10.14,10.14,0,0,0-10.24,0L36.86,30.59,14.59,17.49,37.47,4.15A30.48,30.48,0,0,1,68.17,4.15Z"/><path id="Combined-Shape-3" data-name="Combined-Shape" class="cls-3" d="M0,71.38l47.72,27.7a10.16,10.16,0,0,0,10.2,0h0L68.7,92.83l21.57,12.68-24.7,14.34a25.4,25.4,0,0,1-25.09.23l-.41-.23L10.12,102.46A20.31,20.31,0,0,1,0,84.89H0Z"/></g></g></svg>