<svg xmlns="http://www.w3.org/2000/svg" viewBox="0 0 1000 1166.98"><defs><style>.cls-1{fill:#71ffd7;}.cls-1,.cls-2{fill-rule:evenodd;}.cls-2{fill:#1735de;}</style></defs><g id="Layer_2" data-name="Layer 2"><g id="Layer_1-2" data-name="Layer 1"><path id="Rectangle" class="cls-1" d="M0,170.9,905.18,703.23A192.31,192.31,0,0,1,1000,869V997.82h0L94.82,465.48A192.3,192.3,0,0,1,0,299.71V170.9Z"/><path id="Combined-Shape" class="cls-2" d="M645.3,39.26,904.56,190.43A192.29,192.29,0,0,1,1000,356.56V493L548.43,229.72a96.15,96.15,0,0,0-96.86,0L348.93,289.57l-210.85-124L354.7,39.26A288.49,288.49,0,0,1,645.3,39.26Z"/><path id="Combined-Shape-2" data-name="Combined-Shape" class="cls-2" d="M0,675.7,451.73,937.93a96.13,96.13,0,0,0,96.54,0h0l102-59.24L854.47,998.77,620.68,1134.49a240.38,240.38,0,0,1-237.49,2.2l-3.87-2.2L95.76,969.89A192.32,192.32,0,0,1,0,803.57H0Z"/></g></g></svg>